# xmcd
#
# Track frame offsets:
#	150
#	22250
#	37700
#	50860
#
# Disc length: 943 seconds
#
# Revision: 3
# Processed by: cddbd v1.5.1PL0 Copyright (c) Steve Scherf et al.
# Submitted via: EasyCDDAExtractor 5.1.0
#
DISCID=2f03ad04
DTITLE=Alice Cooper - Molson Amphitheatre Toronto 22-07-04 Disc 2
DYEAR=2004
DGENRE=Hard Rock
TTITLE0=Poison
TTITLE1=Musical Band Intros
TTITLE2=Under Me Wheels
TTITLE3=Elected
EXTD=
EXTT0=
EXTT1=
EXTT2=
EXTT3=
PLAYORDER=
